<svg height="512pt" viewBox="-5 0 512 512.00027" width="512pt" xmlns="http://www.w3.org/2000/svg"><path d="m390.578125 404.050781v-37.714843h-77.152344v37.714843c0 7.351563-4.390625 13.996094-11.15625 16.875l-69.558593 29.640625c-14.246094 6.070313-23.492188 20.058594-23.492188 35.542969v25.890625h285.566406v-25.890625c0-15.484375-9.246094-29.472656-23.492187-35.542969l-69.558594-29.640625c-6.765625-2.878906-11.15625-9.523437-11.15625-16.875zm0 0" fill="#ffbd86"/><path d="m494.785156 486.109375v25.890625h-20.066406v-17.371094c0-15.480468-9.242188-25.523437-23.484375-31.597656-13.214844-5.628906-26.425781-11.257812-39.640625-16.886719-15.628906-6.660156-41.078125-12.769531-41.078125-33.574219 0-.0625 0-46.234374 0-46.234374h20.066406v37.714843c0 7.351563 4.390625 13.992188 11.15625 16.882813l69.550781 29.628906c14.253907 6.074219 23.496094 20.066406 23.496094 35.546875zm0 0" fill="#f6a96c"/><path d="m439.914062 134.792969c-39.875-37.722657-87.898437-36.050781-87.898437-36.050781s-48.027344-1.671876-87.902344 36.050781c-29.738281 28.132812-44.21875 69.214843-40.632812 110.515625 4.007812 46.210937 22.910156 117.121094 97.949219 147.046875 19.664062 7.84375 41.503906 7.84375 61.171874 0 75.039063-29.925781 93.9375-100.835938 97.949219-147.046875 3.582031-41.300782-10.898437-82.382813-40.636719-110.515625zm0 0" fill="#ffbd86"/><path d="m480.550781 245.3125c-4.007812 46.214844-22.90625 117.121094-97.945312 147.046875-17.453125 6.964844-36.609375 7.738281-54.445313 2.347656 11.628906.546875 23.339844-1.386719 34.371094-5.785156 75.039062-29.925781 93.945312-100.835937 97.953125-147.046875 3.585937-41.3125-10.894531-82.390625-40.636719-110.523438-20.003906-18.929687-42.074218-27.933593-59.082031-32.222656 15.664063 1.417969 49.652344 7.757813 79.15625 35.671875 29.730469 28.132813 44.210937 69.214844 40.628906 110.511719zm0 0" fill="#f6a96c"/><path d="m316.207031 288.367188c-12.808593 0-23.230469-10.421876-23.230469-23.230469 0-4.144531 3.355469-7.5 7.5-7.5 4.140626 0 7.5 3.355469 7.5 7.5 0 4.539062 3.691407 8.230469 8.230469 8.230469 4.542969 0 8.234375-3.691407 8.234375-8.230469 0-4.144531 3.359375-7.5 7.5-7.5s7.5 3.355469 7.5 7.5c0 12.808593-10.421875 23.230469-23.234375 23.230469zm0 0" fill="#474747"/><path d="m387.820312 288.367188c-12.8125 0-23.234374-10.421876-23.234374-23.230469 0-4.144531 3.359374-7.5 7.5-7.5 4.144531 0 7.5 3.355469 7.5 7.5 0 4.539062 3.695312 8.230469 8.234374 8.230469 4.539063 0 8.234376-3.691407 8.234376-8.230469 0-4.144531 3.355468-7.5 7.5-7.5 4.140624 0 7.5 3.355469 7.5 7.5 0 12.808593-10.425782 23.230469-23.234376 23.230469zm0 0" fill="#474747"/><path d="m213.449219 139.597656c-8.480469 11.417969-10.542969 40.070313-10.984375 48.65625-.667969 13 .175781 26.238282 2.878906 38.964844 2.566406 12.074219 7.855469 21.832031 14.476562 31.007812 2.804688 3.882813 8.675782 2.730469 9.941407-1.945312 6.152343-22.714844 13.308593-43.390625 29.121093-62.335938 13.605469-16.296874 31.070313-28.566406 50.382813-36.496093 13.589844-5.582031 37.484375-15.113281 41.449219-32.269531 7.464844-32.320313-35.804688-48.367188-58.859375-45.644532-15.339844 1.808594-30.476563 6.5-43.304688 15.273438-13.457031 9.203125-15.625 15.820312-15.433593 34.234375.050781 5.058593-3.839844 7.960937-8.632813 6.332031-4.542969-1.542969-8.15625.347656-11.035156 4.222656zm0 0" fill="#8bebdb"/><path d="m350.714844 125.179688c-3.96875 17.152343-27.863282 26.6875-41.453125 32.261718-2.769531 1.136719-5.484375 2.355469-8.171875 3.675782-15.695313-11.585938-28.882813-26.570313-38.300782-43.671876-2.53125-4.605468-4.816406-9.410156-5.992187-14.53125-.910156-3.976562-1.144531-8.117187-1.578125-12.195312 11.253906-6.1875 23.875-9.675781 36.628906-11.183594 23.0625-2.730468 66.332032 13.320313 58.867188 45.644532zm0 0" fill="#5ee2c5"/><path d="m469.101562 86.394531c-.703124 2.636719-.300781 5.441407 1.109376 7.777344 14.121093 23.441406 28.207031 42.328125 31.171874 82.652344 0 0 4.203126 65.113281-15.753906 82.964843 0 0-8.722656 8.347657-10.589844 0 0 0-6.210937-63.011718-104.929687-99.769531 0 0-101.871094-37.804687-91.371094-97.671875 0 0 3.914063-43.367187 53.871094-58.285156 30.140625-9.003906 62.703125-2.722656 88.152344 15.769531 15.617187 11.351563 33.648437 28.28125 48.765625 52.722657 1.457031 2.355468 1.882812 5.210937 1.167968 7.882812zm0 0" fill="#8bebdb"/><path d="m485.628906 259.792969s-6.539062 6.25-9.492187 2.519531c10.75-25.332031 7.808593-70.988281 7.808593-70.988281-2.964843-40.316407-17.050781-59.203125-31.167968-82.648438-1.40625-2.332031-1.820313-5.140625-1.105469-7.777343l1.589844-5.957032c.710937-2.675781.289062-5.523437-1.167969-7.878906-15.117188-24.445312-33.148438-41.371094-48.765625-52.722656-25.457031-18.496094-58.015625-24.773438-88.152344-15.769532-7.746093 2.3125-14.375 5.308594-20.066406 8.71875 8.003906-9.183593 19.890625-17.972656 37.5-23.226562 30.144531-9.007812 62.707031-2.726562 88.152344 15.769531 15.613281 11.347657 33.644531 28.285157 48.765625 52.71875 1.457031 2.355469 1.878906 5.214844 1.167968 7.890625l-1.59375 5.957032c-.699218 2.636718-.296874 5.433593 1.105469 7.777343 14.117188 23.433594 28.207031 42.320313 31.179688 82.648438 0 0 4.195312 65.113281-15.757813 82.96875zm0 0" fill="#5ee2c5"/><path d="m27.007812 479.949219-5.285156-8.449219 23.722656-14.835938 5.28125 8.449219c1.835938 2.933594.945313 6.796875-1.988281 8.632813l-13.097656 8.191406c-2.933594 1.832031-6.796875.945312-8.632813-1.988281zm0 0" fill="#0396fd"/><path d="m221.984375 336.523438c-2.371094 0-4.703125-1.121094-6.160156-3.214844-2.367188-3.398438-1.53125-8.074219 1.867187-10.441406l32.535156-22.664063c3.398438-2.363281 8.074219-1.53125 10.441407 1.867187 2.367187 3.398438 1.53125 8.074219-1.867188 10.441407l-32.535156 22.664062c-1.308594.910157-2.800781 1.347657-4.28125 1.347657zm0 0" fill="#474747"/><path d="m59.210938 413.824219 15.296874 24.453125-37.484374 23.445312-15.296876-24.449218zm0 0" fill="#ffe7bf"/><path d="m208.203125 364.695312-23.421875-37.449218 18.6875-12.699219c3.753906-2.347656 8.699219-1.207031 11.046875 2.546875l14.921875 23.859375c2.351562 3.75 1.210938 8.695313-2.542969 11.046875zm0 0" fill="#83bfff"/><path d="m27.007812 479.949219-26.054687-41.65625c-1.832031-2.933594-.9414062-6.800781 1.992187-8.632813l13.097657-8.195312c2.929687-1.832032 6.796875-.941406 8.628906 1.992187l26.054687 41.652344c1.835938 2.933594.945313 6.800781-1.988281 8.632813l-13.097656 8.195312c-2.933594 1.832031-6.796875.945312-8.632813-1.988281zm0 0" fill="#83bfff"/><path d="m66.859375 426.050781 7.648437 12.226563-29.152343 18.234375-7.648438-12.226563zm0 0" fill="#ffe1a8"/><path d="m85.371094 455.652344-37.035156-59.210938 125.90625-78.75c3.546874-2.21875 8.226562-1.140625 10.445312 2.410156l28.996094 46.351563c2.21875 3.550781 1.140625 8.226563-2.40625 10.449219zm0 0" fill="#aed3ff"/><path d="m85.371094 455.652344-8.765625-14.015625 132.328125-82.769531 4.75 7.585937c2.21875 3.550781 1.140625 8.230469-2.40625 10.449219zm0 0" fill="#83bfff"/><path d="m146.460938 417.445312-37.035157-59.210937 64.8125-40.542969c3.550781-2.21875 8.230469-1.140625 10.449219 2.410156l28.992188 46.351563c2.222656 3.550781 1.144531 8.226563-2.40625 10.449219zm0 0" fill="#ffc143"/><path d="m146.460938 417.445312-8.71875-13.9375 71.246093-44.558593 4.691407 7.507812c2.222656 3.546875 1.144531 8.226563-2.40625 10.445313zm0 0" fill="#ffb509"/><path d="m210.898438 362.003906-6.839844-10.9375 22.789062-14.253906 2.589844 4.140625c2.347656 3.75 1.207031 8.695313-2.542969 11.046875zm0 0" fill="#0396fd"/><path d="m158.316406 364.320312c-1.238281.78125-2.609375 1.140626-3.96875 1.140626-2.5 0-4.941406-1.242188-6.371094-3.519532l-12.507812-20 12.71875-7.949218 12.511719 20c2.199219 3.507812 1.128906 8.136718-2.382813 10.328124zm0 0" fill="#474747"/><path d="m97.238281 402.53125c-1.242187.769531-2.609375 1.140625-3.972656 1.140625-2.5 0-4.9375-1.25-6.367187-3.53125l-12.5-19.992187v-.007813l12.710937-7.949219 12.507813 20c2.199218 3.507813 1.128906 8.140625-2.378907 10.339844zm0 0" fill="#474747"/><path d="m95.128906 478.742188c-2.5 0-4.941406-1.246094-6.367187-3.523438l-56.535157-90.386719c-2.195312-3.511719-1.128906-8.140625 2.382813-10.335937 3.511719-2.195313 8.136719-1.128906 10.335937 2.382812l56.535157 90.386719c2.195312 3.511719 1.128906 8.140625-2.382813 10.335937-1.234375.773438-2.609375 1.140626-3.96875 1.140626zm0 0" fill="#83bfff"/></svg>