<svg id="Capa_1" enable-background="new 0 0 501.988 501.988" height="512" viewBox="0 0 501.988 501.988" width="512" xmlns="http://www.w3.org/2000/svg"><g><g id="icon_21_"><path d="m413.025 427.665s-1.555 4.603-15.776 12.855c-.673.41-1.377.82-2.143 1.224-2.825 1.607-4.196 4.931-3.324 8.062l.79 3.018c.815 3.084-.576 6.326-3.373 7.86-4.039 2.169-8.552 3.307-13.137 3.312-.441 0-.851 0-1.292 0l-3.9-.178-6.483-.294c-2.032-.1-4.044.444-5.748 1.555-2.719 1.767-4.388 4.765-4.457 8.007-.08 3.895-3.261 7.01-7.156 7.009-.294 0-.612 0-.912-.061l-10.792-1.347-.912-.086c-3.483-.28-6.971.474-10.027 2.167-1.237.649-2.373 1.473-3.373 2.449-3.017 3.053-5.557 6.543-7.536 10.352-.909 1.861-2.258 3.473-3.93 4.695-3.454 2.423-7.571 3.722-11.79 3.722h-20.814c-3.722 0-7.389-.178-11.086-.496-3.428-.294-8.57-.673-14.839-.882-6.305.208-11.435.612-14.87.882-3.673.324-7.346.496-11.056.496h-20.997c-7.193-.259-13.585-4.661-16.394-11.288-1.87-4.865-5.319-8.961-9.795-11.631-1.708-.842-3.609-1.216-5.51-1.084 0 0-2.081.263-4.781.612-5.105.612-12.433 1.524-12.641 1.524-3.896.001-7.076-3.115-7.156-7.009-.124-5.408-4.608-9.692-10.016-9.568-.063.001-.126.003-.189.006l-6.483.294-3.869.178c-.441 0-.851 0-1.292 0-4.619-.012-9.163-1.171-13.223-3.373-2.777-1.519-4.148-4.746-3.312-7.799l.82-3.018c.846-3.135-.543-6.445-3.373-8.038l-2.143-1.224c-14.221-8.27-15.776-12.904-15.776-12.904 16.873-70.428 42.565-138.446 76.466-202.443 4.532-8.425 9.886-16.381 15.984-23.752l5.51-6.654c6.412-7.826 11.602-16.577 15.396-25.956l5.161-12.96c-36.687-46.427-30.565-103.995-30.565-103.995l-5.13-38.242 7.346-10.848 14.398-2.314 3.191-.5c6.856 29.972 36.711 48.71 66.683 41.854 20.827-4.764 37.09-21.027 41.854-41.854l3.196.496 14.398 2.314 7.346 10.848-5.136 38.248s6.122 57.544-30.559 103.989l5.191 12.96c2.404 6.01 5.4 11.767 8.944 17.184 1.989 3.038 4.143 5.964 6.452 8.766l5.509 6.654c6.078 7.386 11.431 15.34 15.984 23.752 33.879 64.007 59.564 132.028 76.447 202.454z" fill="#ef5261"/><g fill="#da364c"><path d="m397.25 440.539c-.673.41-1.377.82-2.143 1.224-2.817 1.605-4.186 4.918-3.324 8.044l.79 3.018c.815 3.084-.576 6.326-3.373 7.86-4.039 2.169-8.552 3.307-13.137 3.312-.441 0-.851 0-1.292 0l-3.9-.178-42.851-209.152z"/><path d="m358.628 465.056c-2.719 1.767-4.388 4.765-4.457 8.007-.08 3.895-3.261 7.01-7.156 7.009-.294 0-.612 0-.912-.061l-10.792-1.347-.912-.086-25.478-242.62z"/><path d="m324.371 480.746c-1.237.649-2.373 1.473-3.373 2.449-3.017 3.053-5.557 6.543-7.536 10.352-.909 1.861-2.258 3.473-3.93 4.695-3.454 2.423-7.571 3.722-11.79 3.722h-15.249l4.046-254.661z"/><path d="m174.017 254.661-42.901 209.134-3.869.178c-.441 0-.851 0-1.292 0-4.619-.012-9.163-1.171-13.223-3.373-2.777-1.519-4.148-4.746-3.312-7.799l.82-3.018c.846-3.135-.543-6.445-3.373-8.038l-2.143-1.224z"/><path d="m193.08 235.929-25.484 242.614c-5.105.612-12.433 1.524-12.641 1.524-3.896.001-7.076-3.114-7.156-7.009-.052-3.226-1.713-6.212-4.426-7.958z"/><path d="m219.477 501.976h-15.396c-7.193-.259-13.585-4.661-16.394-11.288-1.87-4.865-5.319-8.961-9.795-11.631l37.538-231.741z"/></g><path d="m189.156 147.844c40.835 7.958 82.822 7.958 123.658 0v29.329c-41.011 5.865-82.647 5.865-123.658 0z" fill="none"/><ellipse cx="251.279" cy="167.856" fill="none" rx="15.678" ry="9.078"/><path d="m356.749 44.578c-10.161 3.955-20.839 6.429-31.704 7.346-3.809-16.08-4.555-32.734-2.198-49.09 12.245-4.57 25.877 1.652 30.447 13.897.836 2.241 1.328 4.595 1.459 6.983z" fill="#da364c"/><path d="m145.233 44.578c10.161 3.955 20.839 6.429 31.704 7.346 3.809-16.08 4.555-32.734 2.198-49.09-12.246-4.57-25.877 1.652-30.448 13.897-.836 2.241-1.328 4.595-1.459 6.983z" fill="#da364c"/><path d="m309.184.612c-5.261 27.671-29.822 47.437-57.978 46.659-52.083 0-58.125-46.041-58.125-46.714l3.635-.557c6.856 29.972 36.711 48.71 66.683 41.854 20.827-4.764 37.09-21.027 41.854-41.854z" fill="#da364c"/></g></g></svg>